<svg width="94" height="61" viewBox="0 0 94 61" fill="none" xmlns="http://www.w3.org/2000/svg">
<rect x="0.5" width="93" height="61" rx="8" fill="#FFBC00"/>
<path d="M13.4902 18.8486H12.5V12.1514H13.4902V18.8486ZM13.5963 15.2506C14.0206 14.7638 14.4479 14.2591 14.8782 13.7366C15.3084 13.2142 15.7063 12.6858 16.0717 12.1514H17.2121C16.8408 12.6858 16.4518 13.2171 16.0452 13.7455C15.6385 14.274 15.2259 14.7816 14.8074 15.2684L17.6277 18.8486H16.4253L13.5963 15.2506Z" fill="black"/>
<path d="M21.4869 15.1705C21.6579 15.218 21.817 15.2922 21.9643 15.3931C22.1117 15.4881 22.2384 15.6069 22.3445 15.7494C22.4506 15.8919 22.5331 16.0581 22.592 16.2481C22.6569 16.4321 22.6893 16.631 22.6893 16.8448C22.6893 17.1476 22.6392 17.4237 22.539 17.673C22.4447 17.9224 22.2914 18.1391 22.0793 18.3232C21.8671 18.5013 21.596 18.6408 21.2659 18.7417C20.9418 18.8427 20.5498 18.8931 20.0901 18.8931C19.984 18.8931 19.8543 18.8872 19.7011 18.8753C19.5538 18.8694 19.3946 18.8605 19.2237 18.8486C19.0528 18.8367 18.8789 18.8219 18.7021 18.8041C18.5253 18.7803 18.3573 18.7536 18.1982 18.7239V12.4453C18.5164 12.3147 18.8406 12.2078 19.1707 12.1247C19.5066 12.0416 19.8249 12 20.1255 12C20.4496 12 20.7473 12.0386 21.0184 12.1158C21.2954 12.193 21.5341 12.3087 21.7345 12.4631C21.9349 12.6115 22.0911 12.7956 22.203 13.0153C22.315 13.229 22.371 13.4784 22.371 13.7634C22.371 13.9296 22.3474 14.0869 22.3003 14.2354C22.2531 14.3838 22.1883 14.5204 22.1058 14.645C22.0292 14.7638 21.9378 14.8677 21.8317 14.9567C21.7256 15.0458 21.6107 15.117 21.4869 15.1705ZM21.6638 16.8181C21.6638 16.6103 21.6195 16.4321 21.5311 16.2837C21.4486 16.1353 21.3396 16.0136 21.204 15.9186C21.0685 15.8176 20.9123 15.7464 20.7355 15.7048C20.5645 15.6573 20.3877 15.6336 20.205 15.6336H19.1883V18.0471C19.3534 18.0708 19.5213 18.0886 19.6923 18.1005C19.8691 18.1124 20.0459 18.1183 20.2227 18.1183C20.429 18.1183 20.6205 18.0946 20.7974 18.0471C20.9742 17.9996 21.1245 17.9254 21.2482 17.8244C21.3779 17.7235 21.4781 17.5899 21.5488 17.4237C21.6254 17.2574 21.6638 17.0556 21.6638 16.8181ZM20.037 14.8855C20.2139 14.8855 20.3818 14.8617 20.541 14.8142C20.7001 14.7608 20.8386 14.6896 20.9565 14.6005C21.0744 14.5055 21.1687 14.3927 21.2394 14.2621C21.3101 14.1255 21.3455 13.9712 21.3455 13.799C21.3455 13.6387 21.3101 13.4962 21.2394 13.3715C21.1746 13.2409 21.0862 13.131 20.9742 13.042C20.8622 12.9529 20.7325 12.8846 20.5852 12.8372C20.4437 12.7897 20.2964 12.7659 20.1431 12.7659C19.9545 12.7659 19.7748 12.7867 19.6038 12.8282C19.4329 12.8639 19.2944 12.8995 19.1883 12.9351V14.8855H20.037Z" fill="black"/>
<path d="M26.072 18.8486V12.4364C26.461 12.3058 26.8235 12.2019 27.1594 12.1247C27.5013 12.0416 27.8343 12 28.1584 12C28.4649 12 28.7566 12.0505 29.0337 12.1514C29.3107 12.2523 29.5553 12.4008 29.7674 12.5967C29.9796 12.7926 30.1476 13.036 30.2714 13.327C30.401 13.6179 30.4659 13.9534 30.4659 14.3333C30.4659 14.6539 30.4128 14.9538 30.3067 15.2328C30.2065 15.5059 30.0562 15.7464 29.8558 15.9542C29.6613 16.162 29.4197 16.3253 29.1309 16.444C28.848 16.5628 28.5268 16.6221 28.1673 16.6221C27.9728 16.6221 27.7871 16.6103 27.6103 16.5865C27.4335 16.5568 27.2537 16.5182 27.071 16.4707V18.8486H26.072ZM29.4757 14.2888C29.4757 14.0691 29.4433 13.8673 29.3784 13.6832C29.3136 13.4992 29.2223 13.3388 29.1044 13.2023C28.9924 13.0657 28.8539 12.9589 28.6889 12.8817C28.5238 12.8045 28.3411 12.7659 28.1407 12.7659C27.9168 12.7659 27.7223 12.7837 27.5572 12.8193C27.3922 12.855 27.2301 12.8906 27.071 12.9262V15.6781C27.2478 15.7316 27.4187 15.7731 27.5838 15.8028C27.7547 15.8265 27.9344 15.8384 28.1231 15.8384C28.3529 15.8384 28.5533 15.7969 28.7242 15.7137C28.8951 15.6306 29.0337 15.5178 29.1397 15.3753C29.2517 15.2328 29.3342 15.0696 29.3873 14.8855C29.4462 14.6955 29.4757 14.4966 29.4757 14.2888Z" fill="black"/>
<path d="M35.1624 18.8486C35.0976 18.6467 35.0121 18.4271 34.906 18.1896C34.8058 17.9521 34.6968 17.7176 34.5789 17.486C34.461 17.2545 34.3402 17.0407 34.2164 16.8448C34.0927 16.6429 33.9748 16.4767 33.8628 16.3461C33.798 16.2807 33.739 16.2362 33.686 16.2125C33.6329 16.1887 33.5504 16.1768 33.4384 16.1768H32.5102V18.8486H31.5111V12.4364C31.6349 12.3889 31.7705 12.3384 31.9178 12.285C32.0711 12.2316 32.2302 12.1841 32.3952 12.1425C32.5661 12.1009 32.74 12.0683 32.9168 12.0445C33.0936 12.0148 33.2675 12 33.4384 12C33.7449 12 34.0337 12.0416 34.3048 12.1247C34.5818 12.2078 34.8235 12.3384 35.0298 12.5165C35.242 12.6887 35.4099 12.9114 35.5337 13.1845C35.6575 13.4517 35.7194 13.7752 35.7194 14.1552C35.7194 14.5411 35.6221 14.8944 35.4276 15.215C35.239 15.5297 34.9767 15.7701 34.6408 15.9364C34.794 16.1145 34.9443 16.3223 35.0917 16.5598C35.239 16.7913 35.3775 17.0377 35.5072 17.299C35.6368 17.5543 35.7577 17.8155 35.8697 18.0827C35.9875 18.3499 36.0936 18.6052 36.1879 18.8486H35.1624ZM34.7292 14.1107C34.7292 13.6713 34.6143 13.3388 34.3844 13.1132C34.1604 12.8876 33.8451 12.7748 33.4384 12.7748C33.2734 12.7748 33.1143 12.7897 32.961 12.8193C32.8137 12.849 32.6634 12.8876 32.5102 12.9351V15.3931H33.4384C33.6094 15.3931 33.7714 15.3694 33.9247 15.3219C34.0838 15.2684 34.2223 15.1883 34.3402 15.0814C34.4581 14.9746 34.5524 14.841 34.6231 14.6807C34.6938 14.5204 34.7292 14.3304 34.7292 14.1107Z" fill="black"/>
<path d="M37.4033 18.8486H36.3777C36.5192 18.3914 36.6813 17.8779 36.864 17.3079C37.0467 16.7379 37.2471 16.1531 37.4651 15.5534C37.6832 14.9538 37.9131 14.3601 38.1547 13.7723C38.3964 13.1845 38.6469 12.6442 38.9062 12.1514H39.7461C39.9995 12.6442 40.247 13.1815 40.4887 13.7634C40.7303 14.3452 40.9602 14.936 41.1783 15.5356C41.3963 16.1293 41.5967 16.7142 41.7794 17.2901C41.968 17.8601 42.1331 18.3796 42.2745 18.8486H41.249C41.1488 18.5399 41.0457 18.2133 40.9396 17.869C40.8394 17.5187 40.7362 17.1832 40.6301 16.8626H38.0221C37.9101 17.1891 37.804 17.5276 37.7038 17.8779C37.6036 18.2222 37.5035 18.5458 37.4033 18.8486ZM39.3217 13.2735C39.2274 13.4873 39.1331 13.7159 39.0388 13.9593C38.9504 14.1968 38.862 14.4402 38.7736 14.6896C38.6911 14.9389 38.6085 15.1853 38.526 15.4288C38.4435 15.6722 38.3669 15.9008 38.2962 16.1145H40.3561C40.191 15.6395 40.026 15.1586 39.861 14.6718C39.7019 14.1849 39.5221 13.7188 39.3217 13.2735Z" fill="black"/>
<path d="M42.7767 17.9758C43.0243 18.0411 43.2836 18.0975 43.5547 18.145C43.8258 18.1925 44.097 18.2163 44.3681 18.2163C44.6156 18.2163 44.8248 18.1896 44.9958 18.1361C45.1667 18.0768 45.3052 17.9996 45.4113 17.9046C45.5174 17.8036 45.594 17.6908 45.6411 17.5662C45.6883 17.4415 45.7119 17.3079 45.7119 17.1654C45.7119 16.916 45.6559 16.7112 45.5439 16.5509C45.4319 16.3846 45.2521 16.2243 45.0046 16.07C44.7099 15.8859 44.4417 15.7197 44.2001 15.5712C43.9643 15.4228 43.7433 15.2744 43.537 15.126C43.2541 14.9182 43.0419 14.6896 42.9005 14.4402C42.759 14.1908 42.6883 13.9326 42.6883 13.6654C42.6883 13.1192 42.8681 12.7065 43.2276 12.4275C43.5871 12.1425 44.0793 12 44.704 12C44.8337 12 44.9751 12.0089 45.1284 12.0267C45.2816 12.0386 45.4349 12.0594 45.5881 12.0891C45.7472 12.1128 45.9005 12.1425 46.0478 12.1781C46.2011 12.2078 46.3396 12.2405 46.4633 12.2761L46.3661 12.9529C46.2541 12.9351 46.1274 12.9173 45.9859 12.8995C45.8504 12.8757 45.7089 12.8579 45.5616 12.8461C45.4201 12.8282 45.2787 12.8134 45.1372 12.8015C44.9958 12.7897 44.8632 12.7837 44.7394 12.7837C44.3857 12.7837 44.1264 12.8639 43.9614 13.0242C43.8023 13.1785 43.7227 13.3863 43.7227 13.6476C43.7227 13.8376 43.7728 13.9979 43.873 14.1285C43.9732 14.2532 44.0999 14.3749 44.2531 14.4936C44.4064 14.6064 44.5979 14.7341 44.8278 14.8766C45.0635 15.0131 45.3022 15.1586 45.5439 15.313C45.7207 15.4198 45.8828 15.5356 46.0301 15.6603C46.1775 15.785 46.3042 15.9215 46.4103 16.07C46.5164 16.2125 46.5989 16.3728 46.6578 16.5509C46.7168 16.729 46.7462 16.9279 46.7462 17.1476C46.7462 17.7235 46.5429 18.1777 46.1362 18.5102C45.7354 18.8367 45.152 19 44.3857 19C44.2561 19 44.1117 18.9881 43.9526 18.9644C43.7993 18.9466 43.6431 18.9228 43.484 18.8931C43.3307 18.8634 43.1805 18.8278 43.0331 18.7863C42.8917 18.7447 42.7679 18.7031 42.6618 18.6616L42.7767 17.9758Z" fill="black"/>
<path d="M48.3161 18.8486H47.2906C47.432 18.3914 47.5941 17.8779 47.7768 17.3079C47.9595 16.7379 48.1599 16.1531 48.378 15.5534C48.5961 14.9538 48.8259 14.3601 49.0676 13.7723C49.3092 13.1845 49.5597 12.6442 49.819 12.1514H50.6589C50.9123 12.6442 51.1599 13.1815 51.4015 13.7634C51.6432 14.3452 51.873 14.936 52.0911 15.5356C52.3092 16.1293 52.5096 16.7142 52.6923 17.2901C52.8809 17.8601 53.0459 18.3796 53.1874 18.8486H52.1618C52.0616 18.5399 51.9585 18.2133 51.8524 17.869C51.7522 17.5187 51.6491 17.1832 51.543 16.8626H48.935C48.823 17.1891 48.7169 17.5276 48.6167 17.8779C48.5165 18.2222 48.4163 18.5458 48.3161 18.8486ZM50.2346 13.2735C50.1402 13.4873 50.0459 13.7159 49.9516 13.9593C49.8632 14.1968 49.7748 14.4402 49.6864 14.6896C49.6039 14.9389 49.5214 15.1853 49.4389 15.4288C49.3564 15.6722 49.2797 15.9008 49.209 16.1145H51.2689C51.1039 15.6395 50.9389 15.1586 50.7738 14.6718C50.6147 14.1849 50.4349 13.7188 50.2346 13.2735Z" fill="black"/>
<path d="M56.4843 12.7748C56.1601 12.7748 55.8684 12.8401 55.6091 12.9707C55.3556 13.0954 55.1405 13.2735 54.9637 13.5051C54.7869 13.7366 54.6513 14.0127 54.557 14.3333C54.4686 14.6539 54.4244 15.0042 54.4244 15.3842C54.4244 15.8058 54.4627 16.1917 54.5393 16.542C54.6218 16.8923 54.7515 17.1921 54.9283 17.4415C55.1051 17.6908 55.335 17.8838 55.6179 18.0204C55.9008 18.1569 56.2456 18.2252 56.6523 18.2252C56.9175 18.2252 57.1857 18.1955 57.4568 18.1361C57.7338 18.0708 58.0255 17.9936 58.332 17.9046L58.5 18.5636C58.2171 18.6824 57.9106 18.7833 57.5806 18.8664C57.2564 18.9555 56.9381 19 56.6257 19C56.0305 19 55.5265 18.908 55.114 18.7239C54.7014 18.5339 54.3684 18.2757 54.115 17.9491C53.8615 17.6226 53.6788 17.2396 53.5668 16.8003C53.4549 16.355 53.3989 15.877 53.3989 15.3664C53.3989 14.8914 53.4637 14.4491 53.5934 14.0394C53.7289 13.6298 53.9264 13.2735 54.1857 12.9707C54.445 12.6679 54.7662 12.4304 55.1493 12.2583C55.5324 12.0861 55.9745 12 56.4755 12C56.8586 12 57.2034 12.0416 57.5098 12.1247C57.8163 12.2078 58.0815 12.288 58.3055 12.3651L58.1552 13.042C57.9018 12.9767 57.6454 12.9173 57.3861 12.8639C57.1267 12.8045 56.8261 12.7748 56.4843 12.7748Z" fill="black"/>
<path d="M25.9087 42.9665C26.0506 43.1614 26.228 43.3381 26.4409 43.4964C26.6538 43.667 26.8785 43.8254 27.115 43.9716C27.3516 44.1178 27.5822 44.2518 27.8069 44.3736C28.0434 44.4954 28.2563 44.599 28.4455 44.6843L27.9843 46C27.7241 45.9635 27.4343 45.9208 27.115 45.8721C26.7957 45.8233 26.4705 45.7442 26.1393 45.6345C25.82 45.5371 25.5066 45.4091 25.1991 45.2508C24.9034 45.0924 24.6433 44.8853 24.4186 44.6294L22.6623 42.6741C21.8463 42.5766 21.113 42.333 20.4626 41.9431C19.8239 41.5533 19.2858 41.0416 18.8482 40.4081C18.4106 39.7624 18.0736 39.0132 17.8371 38.1604C17.6124 37.3076 17.5 36.3756 17.5 35.3645C17.5 34.268 17.6301 33.269 17.8903 32.3675C18.1623 31.466 18.5526 30.6924 19.0611 30.0467C19.5815 29.3888 20.2142 28.8832 20.9593 28.5299C21.7044 28.1766 22.55 28 23.4961 28C24.4422 28 25.2878 28.1766 26.0329 28.5299C26.778 28.8832 27.4048 29.3888 27.9133 30.0467C28.4337 30.6924 28.824 31.466 29.0842 32.3675C29.3562 33.269 29.4922 34.268 29.4922 35.3645C29.4922 36.2538 29.4035 37.0822 29.2261 37.8497C29.0487 38.6051 28.7885 39.2873 28.4455 39.8964C28.1144 40.4934 27.6945 41.0112 27.186 41.4497C26.6893 41.8761 26.1216 42.199 25.483 42.4183L25.9087 42.9665ZM20.1255 35.3645C20.1255 36.1685 20.1906 36.8995 20.3206 37.5574C20.4507 38.203 20.6518 38.7635 20.9238 39.2386C21.2076 39.7015 21.5565 40.0609 21.9705 40.3168C22.3962 40.5604 22.9048 40.6822 23.4961 40.6822C24.0756 40.6822 24.5782 40.5604 25.004 40.3168C25.4297 40.0609 25.7786 39.7015 26.0506 39.2386C26.3345 38.7635 26.5414 38.203 26.6715 37.5574C26.8016 36.8995 26.8667 36.1685 26.8667 35.3645C26.8667 34.5604 26.8016 33.8355 26.6715 33.1898C26.5414 32.532 26.3345 31.9716 26.0506 31.5086C25.7786 31.0335 25.4297 30.6741 25.004 30.4305C24.5782 30.1746 24.0756 30.0467 23.4961 30.0467C22.9048 30.0467 22.3962 30.1746 21.9705 30.4305C21.5565 30.6741 21.2076 31.0335 20.9238 31.5086C20.6518 31.9716 20.4507 32.532 20.3206 33.1898C20.1906 33.8355 20.1255 34.5604 20.1255 35.3645Z" fill="black"/>
<path d="M38.8745 42.4183C38.7444 42.0041 38.5729 41.5533 38.36 41.066C38.1472 40.5787 37.9225 40.1036 37.6859 39.6406C37.4494 39.1655 37.201 38.7269 36.9408 38.3249C36.6925 37.9107 36.456 37.5695 36.2312 37.3015C36.1012 37.1675 35.9711 37.0761 35.841 37.0274C35.7227 36.9665 35.5512 36.936 35.3265 36.936H34.067V42.4183H31.4947V28.8589C31.7904 28.7614 32.1215 28.664 32.4881 28.5665C32.8548 28.4569 33.2332 28.3655 33.6235 28.2924C34.0138 28.2071 34.404 28.1401 34.7943 28.0914C35.1846 28.0305 35.5512 28 35.8942 28C36.5092 28 37.0887 28.0914 37.6327 28.2741C38.1886 28.4447 38.6734 28.7188 39.0874 29.0964C39.5131 29.4619 39.8502 29.931 40.0985 30.5036C40.3469 31.064 40.4711 31.734 40.4711 32.5137C40.4711 32.9036 40.4238 33.2934 40.3292 33.6832C40.2346 34.0731 40.0985 34.4447 39.9211 34.798C39.7437 35.1391 39.519 35.4497 39.247 35.7299C38.975 36.0102 38.6616 36.2294 38.3068 36.3878C38.6261 36.7533 38.9395 37.1797 39.247 37.667C39.5545 38.1421 39.8443 38.6477 40.1163 39.1838C40.4001 39.7198 40.6544 40.268 40.8791 40.8284C41.1156 41.3766 41.3226 41.9066 41.5 42.4183H38.8745ZM37.9165 32.4223C37.9165 31.9959 37.8574 31.6365 37.7391 31.3442C37.6327 31.0396 37.4849 30.7959 37.2956 30.6132C37.1064 30.4183 36.8817 30.2782 36.6215 30.1929C36.3732 30.1076 36.1071 30.065 35.8232 30.065C35.4921 30.065 35.1905 30.0954 34.9185 30.1563C34.6583 30.2051 34.3745 30.2782 34.067 30.3756V34.8528H35.3265C35.705 34.8528 36.0539 34.8102 36.3732 34.7249C36.6925 34.6396 36.9645 34.5056 37.1892 34.3228C37.4257 34.1279 37.6031 33.8782 37.7214 33.5736C37.8515 33.2569 37.9165 32.8731 37.9165 32.4223Z" fill="black"/>
<path fill-rule="evenodd" clip-rule="evenodd" d="M12.5 26.25C12.5 24.4551 13.9271 23 15.6875 23H18.875C19.4618 23 19.9375 23.485 19.9375 24.0833C19.9375 24.6816 19.4618 25.1667 18.875 25.1667H15.6875C15.1007 25.1667 14.625 25.6517 14.625 26.25V29.5C14.625 30.0983 14.1493 30.5833 13.5625 30.5833C12.9757 30.5833 12.5 30.0983 12.5 29.5V26.25Z" fill="black"/>
<path fill-rule="evenodd" clip-rule="evenodd" d="M12.5 45.75C12.5 47.5449 13.9271 49 15.6875 49H18.875C19.4618 49 19.9375 48.515 19.9375 47.9167C19.9375 47.3184 19.4618 46.8333 18.875 46.8333H15.6875C15.1007 46.8333 14.625 46.3483 14.625 45.75V42.5C14.625 41.9017 14.1493 41.4167 13.5625 41.4167C12.9757 41.4167 12.5 41.9017 12.5 42.5V45.75Z" fill="black"/>
<path fill-rule="evenodd" clip-rule="evenodd" d="M46.5001 26.25C46.5001 24.4551 45.073 23 43.3126 23H40.1251C39.5383 23 39.0626 23.485 39.0626 24.0833C39.0626 24.6816 39.5383 25.1667 40.1251 25.1667H43.3126C43.8994 25.1667 44.3751 25.6517 44.3751 26.25V29.5C44.3751 30.0983 44.8508 30.5833 45.4376 30.5833C46.0244 30.5833 46.5001 30.0983 46.5001 29.5V26.25Z" fill="black"/>
<path fill-rule="evenodd" clip-rule="evenodd" d="M46.5001 45.75C46.5001 47.5449 45.073 49 43.3126 49H40.1251C39.5383 49 39.0626 48.515 39.0626 47.9167C39.0626 47.3184 39.5383 46.8333 40.1251 46.8333H43.3126C43.8994 46.8333 44.3751 46.3483 44.3751 45.75V42.5C44.3751 41.9017 44.8508 41.4167 45.4376 41.4167C46.0244 41.4167 46.5001 41.9017 46.5001 42.5V45.75Z" fill="black"/>
<path d="M51.5 42.1158V28.8766C52.2703 28.6262 53.0466 28.4175 53.829 28.2505C54.6233 28.0835 55.3515 28 56.0135 28C56.6755 28 57.3073 28.1133 57.9091 28.3399C58.523 28.5546 59.0586 28.8707 59.5159 29.2881C59.9733 29.7056 60.3344 30.2185 60.5992 30.8267C60.876 31.4231 61.0144 32.103 61.0144 32.8663C61.0144 33.57 60.8941 34.2141 60.6533 34.7985C60.4247 35.3829 60.0937 35.8839 59.6604 36.3013C59.2271 36.7188 58.7035 37.0468 58.0897 37.2853C57.4759 37.5239 56.7898 37.6431 56.0315 37.6431C55.7066 37.6431 55.3876 37.6193 55.0747 37.5716C54.7617 37.5239 54.4428 37.4583 54.1178 37.3748V42.1158H51.5ZM58.4147 32.7768C58.4147 31.8942 58.2161 31.2144 57.8189 30.7373C57.4217 30.2483 56.8079 30.0038 55.9774 30.0038C55.7367 30.0038 55.4478 30.0336 55.1108 30.0932C54.7738 30.1409 54.4428 30.2185 54.1178 30.3258V35.3173C54.4428 35.4247 54.7437 35.5022 55.0205 35.5499C55.2973 35.5857 55.6043 35.6036 55.9413 35.6036C56.8319 35.6036 57.4638 35.3471 57.8369 34.8343C58.2221 34.3095 58.4147 33.6237 58.4147 32.7768Z" fill="black"/>
<path d="M67.8339 37.6968C67.4487 37.6014 67.0756 37.5179 66.7145 37.4463C66.3655 37.3628 66.0164 37.3211 65.6674 37.3211C65.198 37.3211 64.8189 37.4583 64.53 37.7326C64.2532 38.0069 64.1148 38.4124 64.1148 38.9492C64.1148 39.4978 64.2652 39.9033 64.5661 40.1657C64.879 40.4281 65.2883 40.5593 65.7938 40.5593C66.0706 40.5593 66.3835 40.5414 66.7326 40.5056C67.0816 40.4699 67.4487 40.4043 67.8339 40.3089V37.6968ZM67.8519 35.3889C67.8519 34.8283 67.6955 34.3989 67.3825 34.1008C67.0816 33.7906 66.5701 33.6356 65.8479 33.6356C65.2702 33.6356 64.7587 33.6475 64.3134 33.6714C63.868 33.6952 63.4167 33.725 62.9593 33.7608L62.8149 32.2043C63.0556 32.1566 63.3144 32.1089 63.5912 32.0612C63.8801 32.0016 64.1629 31.9539 64.4397 31.9181C64.7286 31.8823 65.0054 31.8525 65.2702 31.8286C65.535 31.8048 65.7757 31.7928 65.9924 31.7928C67.3765 31.7928 68.4417 32.1208 69.1879 32.7768C69.9462 33.4209 70.3253 34.393 70.3253 35.693V41.4181C70.0003 41.5493 69.6212 41.6745 69.1879 41.7938C68.7667 41.9011 68.3273 42.0025 67.87 42.0979C67.4247 42.1933 66.9793 42.2649 66.534 42.3126C66.1007 42.3723 65.6975 42.4021 65.3244 42.4021C64.7587 42.4021 64.2472 42.3186 63.7898 42.1516C63.3324 41.9846 62.9413 41.752 62.6163 41.4539C62.3034 41.1438 62.0566 40.78 61.8761 40.3625C61.7076 39.9331 61.6233 39.462 61.6233 38.9492C61.6233 38.4601 61.7136 38.0069 61.8941 37.5895C62.0747 37.1601 62.3274 36.7903 62.6524 36.4802C62.9894 36.1701 63.3926 35.9256 63.862 35.7467C64.3314 35.5678 64.849 35.4783 65.4146 35.4783C65.8359 35.4783 66.2511 35.5261 66.6604 35.6215C67.0696 35.7169 67.4668 35.8302 67.8519 35.9614V35.3889Z" fill="black"/>
<path d="M81.5 42.2589C81.5 43.2489 81.2593 44.054 80.7778 44.6742C80.2964 45.2944 79.6826 45.7775 78.9363 46.1234C78.2021 46.4692 77.3957 46.7018 76.5171 46.8211C75.6385 46.9404 74.796 47 73.9896 47L73.8451 45.3183C74.4469 45.2706 75.0487 45.193 75.6505 45.0857C76.2644 44.9903 76.818 44.8293 77.3115 44.6026C77.805 44.3879 78.2082 44.0898 78.5211 43.7081C78.834 43.3264 78.9905 42.8255 78.9905 42.2053V41.5791C78.5692 41.7103 78.154 41.8236 77.7448 41.919C77.3476 42.0144 76.9384 42.0621 76.5171 42.0621C75.3015 42.0621 74.3567 41.7938 73.6826 41.2571C73.0207 40.7084 72.6897 39.8735 72.6897 38.7524V32.097H75.2172V38.6271C75.2172 39.2115 75.3316 39.6111 75.5603 39.8258C75.7889 40.0405 76.1861 40.1478 76.7518 40.1478C77.137 40.1478 77.5221 40.1121 77.9073 40.0405C78.3045 39.957 78.6595 39.8675 78.9724 39.7721V32.097H81.5V42.2589Z" fill="black"/>
</svg>
