<svg width="292" height="30" viewBox="0 0 292 30" fill="none" xmlns="http://www.w3.org/2000/svg">
<path d="M41.4655 15.1669C40.7472 14.5207 39.8983 14.0392 38.9774 13.7556C38.0565 13.472 37.0855 13.393 36.1314 13.5242C34.4708 13.6608 32.869 14.2071 31.4675 15.1149V15.0676C31.4805 14.4341 31.5264 13.8018 31.605 13.1732C31.6838 12.5346 31.7297 11.8923 31.7424 11.2489C31.7619 10.6514 31.6625 10.056 31.4503 9.49769C31.4227 9.43232 31.3757 9.3771 31.3159 9.33952C31.2561 9.30193 31.1862 9.28381 31.1158 9.2876C30.3566 9.35832 29.6223 9.59719 28.9654 9.98715L28.8027 10.3335C28.7932 11.2897 28.6861 12.2425 28.4831 13.1767C28.4911 13.1686 28.3983 13.4076 28.3983 13.4076C28.1382 15.8127 28.1306 18.2388 28.3754 20.6455C28.4029 20.8545 28.8061 21.165 29.1178 21.2793C29.8118 21.2973 30.5015 21.1642 31.1398 20.8891L31.369 20.8545C31.4156 20.8491 31.4607 20.8341 31.5013 20.8105C31.542 20.7868 31.5775 20.7551 31.6055 20.7171C31.6335 20.6791 31.6535 20.6358 31.6642 20.5897C31.675 20.5437 31.6763 20.4959 31.668 20.4493L31.6817 19.8536C31.9655 18.8153 32.5214 17.873 33.291 17.1256C34.0606 16.3781 35.0155 15.8531 36.0558 15.6055C36.5793 15.4902 37.1238 15.5157 37.6344 15.6797C38.145 15.8436 38.6038 16.1401 38.9646 16.5394C39.1947 17.5348 39.0255 18.5816 38.4937 19.4519C37.7276 20.6876 36.5498 21.608 35.1714 22.0481C33.5407 22.6249 31.8118 22.8659 30.087 22.7569L28.2138 21.5044C26.56 20.2547 24.7696 19.2 22.8774 18.361C22.4424 18.1225 22.0357 17.8347 21.6653 17.5033L21.482 17.3521C20.4509 16.536 18.4942 15.2419 16.9189 14.2041C16.9189 14.2041 16.2098 13.7331 16.07 13.6431C16.07 13.583 16.078 13.4676 16.078 13.4676C16.1192 13.4168 17.1091 12.8304 17.1091 12.8304C17.8821 12.4544 18.6066 11.9846 19.2663 11.4313C19.2411 11.4624 19.4508 11.3216 19.4508 11.3216L22.8774 9.40073C26.1712 7.60913 29.9014 5.57511 31.8627 3.56417L31.9567 3.25711L31.9991 2.98352C32.1271 2.61584 32.1375 2.21695 32.0288 1.84299C32.0114 1.77932 31.9773 1.72154 31.9302 1.67566C31.883 1.62977 31.8245 1.59747 31.7608 1.5821C30.7625 1.6139 29.7804 1.84447 28.871 2.26054C27.9616 2.6766 27.1429 3.26992 26.4621 4.0063C26.1314 4.3104 25.7596 4.56576 25.3577 4.76473L25.0816 4.9148C23.102 6.03109 18.6408 8.77274 16.3048 10.2538C16.5257 7.23986 16.9231 4.24171 17.4952 1.27504L17.4333 0.928718C17.4241 0.918328 17.1927 0.481971 17.1927 0.481971L17.0094 0.162216L16.9567 0.148362C16.6047 -0.0222716 16.2003 -0.046738 15.8305 0.0802469L15.362 0.251098L14.7422 0.472741C14.6837 0.482651 14.6289 0.507937 14.5832 0.546044C14.5375 0.58415 14.5027 0.633722 14.4821 0.68976C13.2167 4.08511 12.4536 7.64947 12.2172 11.2685C10.507 10.2017 8.73882 9.23237 6.92085 8.36524L6.88648 8.34677L6.77192 8.32022C6.33105 8.20807 5.91411 8.01601 5.54149 7.75342C5.49796 7.72802 4.69142 7.21201 4.69142 7.21201L3.39799 6.38779C3.4083 6.39472 3.05429 6.3116 3.05429 6.3116C2.29671 6.54126 1.62295 6.99052 1.11701 7.60335C1.07634 7.66347 1.0555 7.73495 1.05743 7.80767C1.06301 7.9112 1.08306 8.01341 1.11701 8.11128L1.17314 8.37448L1.23386 8.53148C2.36952 9.51247 3.61945 10.3505 4.95607 11.0272L6.73526 11.9611L9.46075 13.4364C9.46075 13.4503 9.92703 13.8024 9.92703 13.8024L10.2478 13.9859L10.3039 14.0206L5.35132 17.3036L2.74268 19.0144C2.25547 19.2804 1.75363 19.5182 1.23959 19.7267C0.746638 19.8926 0.330725 20.2341 0.0698844 20.6871L0 20.8395L0.0698844 20.9399L0.266936 21.0865C0.261207 21.0865 0.536163 21.2608 0.536163 21.2608L0.822574 21.4571L1.09524 21.4975C1.93831 21.3838 2.75367 21.1158 3.5011 20.7067C4.66393 20.1907 7.82935 18.2998 9.18465 17.4918L9.75747 17.1455C10.035 17.1114 10.2938 16.9865 10.4941 16.7899C10.8767 16.5064 11.2862 16.2616 11.7165 16.0592C11.7291 16.0592 11.9342 15.9438 12.1255 15.8376C12.1255 15.8964 12.1198 15.9911 12.1198 15.9911C12.0995 19.1336 12.3513 22.272 12.8725 25.3704L12.8805 25.412L12.9263 25.5032C13.2387 26.1924 13.4738 26.9144 13.6275 27.6561L14.143 29.3704C14.151 29.3888 14.2885 29.5297 14.2885 29.5297C14.8313 29.8477 15.4502 30.0102 16.078 29.9995L16.2269 29.9833L16.322 29.7732C16.3709 29.5145 16.3944 29.2516 16.3919 28.9883C16.3919 28.6743 16.3667 28.3291 16.3392 27.9078L16.2968 27.2913C16.1101 24.4285 15.9211 20.2935 15.9211 17.5449V17.3255C16.4114 17.6326 18.5618 18.9729 18.5618 18.9729C22.2129 21.3209 27.7373 24.8717 31.0711 25.8102C31.1548 25.836 31.2437 25.8389 31.3289 25.8186C31.414 25.7983 31.4923 25.7556 31.5557 25.6948L32.0712 25.3693L32.1652 25.3289C32.2785 25.2401 32.3689 25.1252 32.4287 24.9938C32.4885 24.8623 32.516 24.7183 32.5089 24.5739C35.3203 24.4331 39.2476 23.3595 41.343 20.746C42.0945 19.8052 42.5101 18.6371 42.523 17.4294C42.5479 17.0611 42.5 16.6914 42.382 16.3418C42.264 15.9922 42.0783 15.6698 41.8356 15.3931L41.4655 15.1669Z" fill="#FFBC00"/>
<path d="M87.7892 14.1905V14.1016C88.9129 13.9415 89.9415 13.3781 90.6858 12.5149C91.4301 11.6516 91.8402 10.5467 91.8406 9.40317C91.8406 5.87701 89.3214 4.26855 84.5119 4.26855H74.3856V25.0205H84.8245C90.415 25.0205 92.6663 22.3459 92.6663 19.2455C92.6651 16.7728 91.1043 14.5851 87.7892 14.1905ZM77.6641 6.63047H83.9622C87.7491 6.63047 88.6572 7.91701 88.6572 9.84855C88.6572 12.0616 86.825 13.0089 84.347 13.0089H77.6641V6.63047ZM84.1351 22.6689H77.6641V15.372H83.9622C87.5819 15.372 89.2172 16.6932 89.2172 19.0782C89.2183 21.0836 88.1545 22.6632 84.1351 22.6632V22.6689Z" fill="#60584C"/>
<path d="M71.1449 4.26855H66.4934L55.4259 13.557V4.26855H52.1394V25.0216H55.4259V13.8997L67.4668 25.0216H72.1182L59.4533 13.6424L71.1449 4.26855Z" fill="#60584C"/>
<path d="M116.639 5.78382C115.957 5.27516 115.192 4.88947 114.379 4.64382C113.478 4.4003 112.549 4.2758 111.617 4.27344H101.918V25.0231H105.175V16.9115H111.614C112.548 16.9224 113.478 16.798 114.376 16.5423C115.198 16.3194 115.967 15.9321 116.637 15.4034C117.289 14.871 117.818 14.2016 118.186 13.4419C118.576 12.5679 118.764 11.6164 118.736 10.6588V10.5261C118.758 9.56042 118.571 8.60149 118.186 7.71652C117.805 6.97407 117.279 6.31674 116.639 5.78382ZM114.325 13.1038C113.55 13.7002 112.59 14.0003 111.616 13.9507H105.175V7.2469H111.614C112.595 7.2106 113.558 7.50904 114.349 8.09382C114.698 8.40794 114.972 8.79761 115.151 9.23362C115.329 9.66964 115.407 10.1407 115.38 10.6115C115.402 11.0803 115.319 11.5482 115.137 11.9799C114.954 12.4116 114.676 12.7959 114.325 13.1038Z" fill="#60584C"/>
<path d="M136.467 14.5816C137.367 13.4305 137.825 11.9909 137.757 10.527C137.779 9.56117 137.591 8.60224 137.207 7.71736C136.825 6.97298 136.296 6.31464 135.654 5.78236C134.972 5.2734 134.207 4.88767 133.393 4.64236C132.493 4.39893 131.566 4.27443 130.634 4.27197H120.931V25.0227H124.191V16.9112H129.187L133.997 25.0216H137.835L132.866 16.647C134.259 16.3756 135.524 15.6498 136.467 14.5816ZM124.191 13.947V7.2189H130.638C131.623 7.17887 132.59 7.4884 133.372 8.09351C133.721 8.40773 133.995 8.79742 134.173 9.23341C134.352 9.6694 134.43 10.1404 134.402 10.6112C134.44 11.0849 134.364 11.5608 134.181 11.9988C133.999 12.4367 133.714 12.824 133.351 13.1277C132.568 13.7064 131.613 13.9972 130.643 13.9516L124.191 13.947Z" fill="#60584C"/>
<path d="M147.607 4.27441L139.72 25.0217H143.136L144.95 20.0925H153.704L155.57 25.0217H159.067L151.077 4.27441H147.607ZM145.951 17.5736L149.289 8.00941L152.707 17.5736H145.951Z" fill="#60584C"/>
<path d="M174.662 14.7788C173.955 14.2997 173.197 13.9004 172.403 13.5881C171.507 13.2804 170.507 12.9704 169.405 12.6581C168.489 12.3985 167.695 12.1642 167.067 11.9323C166.526 11.7783 166.011 11.5421 165.54 11.2319C165.206 11.0592 164.932 10.789 164.752 10.4565C164.597 10.1723 164.523 9.84964 164.541 9.52538C164.545 9.17991 164.63 8.84033 164.789 8.53434C164.948 8.22835 165.177 7.9646 165.457 7.76461C166.299 7.21513 167.297 6.96009 168.298 7.03883C169.272 7.02572 170.241 7.18426 171.161 7.5073C172.017 7.83526 172.802 8.32742 173.473 8.95653L175.838 6.80807C174.86 5.97144 173.761 5.29049 172.578 4.78884C171.284 4.30237 169.911 4.06518 168.53 4.0896C167.563 4.08277 166.599 4.21368 165.667 4.47845C164.828 4.70431 164.035 5.08155 163.329 5.59191C162.671 6.04985 162.123 6.65077 161.726 7.35038C161.335 8.06259 161.137 8.8662 161.153 9.67999C161.117 10.4566 161.272 11.2302 161.603 11.9323C161.879 12.5611 162.324 13.099 162.889 13.4842C163.555 13.9886 164.302 14.3742 165.097 14.6242C166.112 15.0025 167.147 15.3226 168.198 15.5831C169.064 15.8404 169.831 16.0988 170.51 16.3065C171.058 16.4968 171.587 16.7394 172.089 17.0311C172.418 17.2524 172.703 17.5334 172.93 17.8596C173.097 18.1801 173.187 18.5359 173.193 18.8981C173.193 20.8665 171.643 21.8242 168.566 21.8242C167.49 21.8214 166.426 21.6021 165.435 21.1792C164.431 20.7986 163.519 20.2088 162.757 19.4485L160.364 21.5438C161.348 22.5617 162.53 23.3635 163.836 23.8988C165.262 24.4889 166.79 24.7882 168.331 24.7792C169.572 24.7947 170.809 24.6465 172.011 24.3385C172.945 24.0843 173.826 23.6639 174.613 23.0969C175.258 22.5892 175.772 21.9327 176.112 21.1827C176.448 20.3974 176.618 19.5502 176.611 18.695C176.622 17.8974 176.452 17.1079 176.112 16.3873C175.737 15.7614 175.245 15.2151 174.662 14.7788Z" fill="#60584C"/>
<path d="M185.571 4.27344L177.684 25.0207H181.1L182.916 20.0915H191.67L193.537 25.0207H197.031L189.041 4.27344H185.571ZM183.916 17.575L187.252 8.01074L190.67 17.575H183.916Z" fill="#60584C"/>
<path d="M209.685 21.5374C208.806 22.0127 207.818 22.2414 206.822 22.1997C205.952 22.2247 205.089 22.0433 204.303 21.6701C203.573 21.3356 202.941 20.816 202.47 20.162C201.919 19.4655 201.532 18.6514 201.34 17.7816C201.065 16.755 200.932 15.695 200.945 14.6316C200.934 13.5692 201.067 12.5101 201.34 11.4839C201.555 10.6219 201.939 9.81207 202.47 9.10239C202.957 8.46333 203.584 7.94703 204.303 7.59432C205.094 7.23432 205.954 7.05391 206.822 7.06585C207.761 7.02887 208.693 7.23884 209.527 7.67509C210.258 8.1702 210.883 8.80865 211.364 9.55239L214.276 7.83086C213.575 6.61824 212.559 5.62104 211.337 4.94624C209.931 4.25923 208.382 3.92322 206.821 3.96662C205.504 3.9495 204.199 4.21049 202.989 4.73277C201.878 5.2401 200.892 5.98875 200.102 6.92508C199.264 7.91859 198.63 9.07016 198.238 10.3128C197.785 11.7037 197.563 13.1608 197.582 14.6247C197.559 16.0889 197.781 17.5466 198.238 18.9366C198.618 20.1764 199.253 21.3213 200.102 22.2966C200.882 23.2506 201.87 24.0106 202.989 24.5178C204.199 25.0412 205.504 25.3026 206.821 25.2851C208.358 25.3141 209.88 24.9693 211.258 24.2801C212.528 23.592 213.597 22.5798 214.357 21.3447L211.652 19.6255C211.149 20.405 210.476 21.0588 209.685 21.5374Z" fill="#60584C"/>
<path d="M240.702 16.1174C240.379 15.6561 239.99 15.2458 239.547 14.9001C239.034 14.5407 238.465 14.2719 237.862 14.1051C238.741 13.7397 239.48 13.0978 239.967 12.2751C240.461 11.4052 240.714 10.4179 240.701 9.4159C240.754 8.67537 240.626 7.9331 240.328 7.25402C240.03 6.57495 239.572 5.97976 238.993 5.52052C237.378 4.5746 235.517 4.14075 233.654 4.27551H224.482V25.0228H233.969C235.168 25.0441 236.363 24.8922 237.519 24.5717C238.373 24.3067 239.168 23.8755 239.858 23.3024C240.431 22.7987 240.873 22.1619 241.147 21.4471C241.413 20.7453 241.547 19.9993 241.54 19.2478C241.534 18.6938 241.464 18.1424 241.331 17.6047C241.176 17.0873 240.965 16.5886 240.702 16.1174ZM228.03 7.16128H233.131C233.898 7.15478 234.665 7.21695 235.421 7.34705C235.901 7.43838 236.357 7.62807 236.761 7.90436C237.055 8.13527 237.275 8.4494 237.392 8.80667C237.502 9.22039 237.555 9.64751 237.55 10.0759C237.59 10.5374 237.512 11.0016 237.323 11.424C237.134 11.8465 236.841 12.213 236.471 12.4886C235.585 13.0521 234.545 13.3205 233.499 13.2559H228.032L228.03 7.16128ZM236.944 21.709C235.852 22.394 234.572 22.7094 233.29 22.609H228.03V15.9882H233.131C234.457 15.889 235.784 16.155 236.971 16.7578C237.357 17.0575 237.662 17.4493 237.859 17.8979C238.056 18.3464 238.138 18.8374 238.099 19.3263C238.113 19.7881 238.015 20.2464 237.814 20.6616C237.613 21.0767 237.314 21.4362 236.944 21.709Z" fill="#60584C"/>
<path d="M255.048 9.98584C254.451 9.55306 253.784 9.23001 253.075 9.03161C252.243 8.81283 251.385 8.70613 250.525 8.7143C249.482 8.70977 248.442 8.82592 247.425 9.06046C246.525 9.30498 245.659 9.66116 244.846 10.1208L246.106 12.4528C246.746 12.1133 247.425 11.8548 248.127 11.6831C248.888 11.5162 249.664 11.4364 250.443 11.4455C251.278 11.3989 252.104 11.6433 252.782 12.1378C253.049 12.3913 253.258 12.7006 253.394 13.044C253.53 13.3874 253.59 13.7566 253.57 14.1258V15.2658C252.379 14.8486 251.124 14.6505 249.863 14.6808C248.988 14.6767 248.115 14.775 247.263 14.9739C246.515 15.1561 245.804 15.4685 245.162 15.897C244.571 16.2983 244.09 16.8452 243.767 17.4858C243.418 18.1836 243.247 18.9574 243.268 19.7382C243.235 20.5826 243.415 21.4217 243.793 22.1762C244.109 22.8299 244.581 23.3941 245.167 23.8182C245.715 24.2388 246.336 24.5519 246.999 24.7412C247.662 24.9079 248.342 24.997 249.025 25.0066C249.892 25.0068 250.75 24.8261 251.544 24.4758C252.278 24.1355 252.959 23.6893 253.565 23.1512V24.6882H256.748V13.9574C256.757 13.1584 256.606 12.3658 256.302 11.6278C255.998 11.001 255.572 10.4425 255.048 9.98584ZM253.568 20.2655C253.36 20.5298 253.123 20.7698 252.862 20.9808C252.571 21.2162 252.263 21.4295 251.94 21.6189C251.585 21.8178 251.205 21.968 250.81 22.0655C250.402 22.1924 249.977 22.2551 249.551 22.2512C248.693 22.3199 247.841 22.0653 247.159 21.537C246.898 21.3016 246.692 21.0107 246.555 20.6853C246.419 20.3599 246.356 20.008 246.371 19.6551C246.36 19.3123 246.44 18.9728 246.6 18.6706C246.761 18.3683 246.998 18.1138 247.287 17.9324C248.043 17.4924 248.909 17.2817 249.781 17.3255C250.529 17.3202 251.277 17.382 252.015 17.5101C252.548 17.6242 253.068 17.7928 253.566 18.0131L253.568 20.2655Z" fill="#60584C"/>
<path d="M267.278 8.7225C266.448 8.71392 265.625 8.87648 264.86 9.2002C264.164 9.4741 263.554 9.93165 263.095 10.5248V9.03981H259.862V24.6987H263.095V15.5602C263.027 14.4943 263.345 13.4398 263.99 12.5925C264.306 12.2383 264.698 11.9608 265.135 11.7809C265.573 11.6011 266.045 11.5235 266.517 11.554C266.979 11.533 267.44 11.6067 267.873 11.7707C268.306 11.9347 268.702 12.1857 269.036 12.5083C269.724 13.4765 270.041 14.6631 269.929 15.8487V24.6975H273.164V15.716C273.295 13.8432 272.764 11.9841 271.665 10.4683C271.108 9.86747 270.426 9.39911 269.667 9.09715C268.908 8.79519 268.092 8.66721 267.278 8.7225Z" fill="#60584C"/>
<path d="M283.539 16.2781L291.401 9.07113H287.114L279.57 15.9884V4.27344H276.257V25.0219H279.57V16.4892L287.534 25.0219H292L283.539 16.2781Z" fill="#60584C"/>
</svg>
